<svg id="visual" viewBox="0 0 960 300" width="960" height="300" xmlns="http://www.w3.org/2000/svg" xmlns:xlink="http://www.w3.org/1999/xlink" version="1.1"><rect x="0" y="0" width="960" height="300" fill="#202731"></rect><path d="M0 93L9.3 92C18.7 91 37.3 89 56.2 94.7C75 100.3 94 113.7 112.8 113.5C131.7 113.3 150.3 99.7 169.2 98.7C188 97.7 207 109.3 225.8 110.5C244.7 111.7 263.3 102.3 282.2 101.3C301 100.3 320 107.7 338.8 108.3C357.7 109 376.3 103 395.2 98.2C414 93.3 433 89.7 451.8 93C470.7 96.3 489.3 106.7 508.2 110.8C527 115 546 113 564.8 113.5C583.7 114 602.3 117 621.2 113.5C640 110 659 100 677.8 97.8C696.7 95.7 715.3 101.3 734.2 105.2C753 109 772 111 790.8 108.3C809.7 105.7 828.3 98.3 847.2 100.7C866 103 885 115 903.8 118C922.7 121 941.3 115 950.7 112L960 109L960 0L950.7 0C941.3 0 922.7 0 903.8 0C885 0 866 0 847.2 0C828.3 0 809.7 0 790.8 0C772 0 753 0 734.2 0C715.3 0 696.7 0 677.8 0C659 0 640 0 621.2 0C602.3 0 583.7 0 564.8 0C546 0 527 0 508.2 0C489.3 0 470.7 0 451.8 0C433 0 414 0 395.2 0C376.3 0 357.7 0 338.8 0C320 0 301 0 282.2 0C263.3 0 244.7 0 225.8 0C207 0 188 0 169.2 0C150.3 0 131.7 0 112.8 0C94 0 75 0 56.2 0C37.3 0 18.7 0 9.3 0L0 0Z" fill="#6323e2"></path><path d="M0 83L9.3 79.5C18.7 76 37.3 69 56.2 69.7C75 70.3 94 78.7 112.8 79.3C131.7 80 150.3 73 169.2 73.2C188 73.3 207 80.7 225.8 85C244.7 89.3 263.3 90.7 282.2 86.7C301 82.7 320 73.3 338.8 72.5C357.7 71.7 376.3 79.3 395.2 82.3C414 85.3 433 83.7 451.8 82.7C470.7 81.7 489.3 81.3 508.2 81C527 80.7 546 80.3 564.8 80.2C583.7 80 602.3 80 621.2 77.7C640 75.3 659 70.7 677.8 68.2C696.7 65.7 715.3 65.3 734.2 70.2C753 75 772 85 790.8 89.7C809.7 94.3 828.3 93.7 847.2 91.3C866 89 885 85 903.8 85.5C922.7 86 941.3 91 950.7 93.5L960 96L960 0L950.7 0C941.3 0 922.7 0 903.8 0C885 0 866 0 847.2 0C828.3 0 809.7 0 790.8 0C772 0 753 0 734.2 0C715.3 0 696.7 0 677.8 0C659 0 640 0 621.2 0C602.3 0 583.7 0 564.8 0C546 0 527 0 508.2 0C489.3 0 470.7 0 451.8 0C433 0 414 0 395.2 0C376.3 0 357.7 0 338.8 0C320 0 301 0 282.2 0C263.3 0 244.7 0 225.8 0C207 0 188 0 169.2 0C150.3 0 131.7 0 112.8 0C94 0 75 0 56.2 0C37.3 0 18.7 0 9.3 0L0 0Z" fill="#256cfb"></path><path d="M0 57L9.3 59.2C18.7 61.3 37.3 65.7 56.2 67.2C75 68.7 94 67.3 112.8 66C131.7 64.7 150.3 63.3 169.2 62.5C188 61.7 207 61.3 225.8 58.8C244.7 56.3 263.3 51.7 282.2 48.8C301 46 320 45 338.8 47.7C357.7 50.3 376.3 56.7 395.2 55.8C414 55 433 47 451.8 46.8C470.7 46.7 489.3 54.3 508.2 54.3C527 54.3 546 46.7 564.8 46.7C583.7 46.7 602.3 54.3 621.2 56.8C640 59.3 659 56.7 677.8 55C696.7 53.3 715.3 52.7 734.2 53.7C753 54.7 772 57.3 790.8 56.3C809.7 55.3 828.3 50.7 847.2 52C866 53.3 885 60.7 903.8 63.7C922.7 66.7 941.3 65.3 950.7 64.7L960 64L960 0L950.7 0C941.3 0 922.7 0 903.8 0C885 0 866 0 847.2 0C828.3 0 809.7 0 790.8 0C772 0 753 0 734.2 0C715.3 0 696.7 0 677.8 0C659 0 640 0 621.2 0C602.3 0 583.7 0 564.8 0C546 0 527 0 508.2 0C489.3 0 470.7 0 451.8 0C433 0 414 0 395.2 0C376.3 0 357.7 0 338.8 0C320 0 301 0 282.2 0C263.3 0 244.7 0 225.8 0C207 0 188 0 169.2 0C150.3 0 131.7 0 112.8 0C94 0 75 0 56.2 0C37.3 0 18.7 0 9.3 0L0 0Z" fill="#349bff"></path><path d="M0 32L9.3 32.2C18.7 32.3 37.3 32.7 56.2 32.7C75 32.7 94 32.3 112.8 32.8C131.7 33.3 150.3 34.7 169.2 33.8C188 33 207 30 225.8 30.7C244.7 31.3 263.3 35.7 282.2 34.2C301 32.7 320 25.3 338.8 24.8C357.7 24.3 376.3 30.7 395.2 34C414 37.3 433 37.7 451.8 36.5C470.7 35.3 489.3 32.7 508.2 31.8C527 31 546 32 564.8 33C583.7 34 602.3 35 621.2 32.2C640 29.3 659 22.7 677.8 21.8C696.7 21 715.3 26 734.2 28.7C753 31.3 772 31.7 790.8 33.7C809.7 35.7 828.3 39.3 847.2 40.7C866 42 885 41 903.8 36.5C922.7 32 941.3 24 950.7 20L960 16L960 0L950.7 0C941.3 0 922.7 0 903.8 0C885 0 866 0 847.2 0C828.3 0 809.7 0 790.8 0C772 0 753 0 734.2 0C715.3 0 696.7 0 677.8 0C659 0 640 0 621.2 0C602.3 0 583.7 0 564.8 0C546 0 527 0 508.2 0C489.3 0 470.7 0 451.8 0C433 0 414 0 395.2 0C376.3 0 357.7 0 338.8 0C320 0 301 0 282.2 0C263.3 0 244.7 0 225.8 0C207 0 188 0 169.2 0C150.3 0 131.7 0 112.8 0C94 0 75 0 56.2 0C37.3 0 18.7 0 9.3 0L0 0Z" fill="#7cc4ff"></path></svg>